<svg width="35" height="32" viewBox="0 0 35 32" fill="none" xmlns="http://www.w3.org/2000/svg">
<path d="M27.5509 8.08549C31.217 5.15259 35.1948 0.918226 34.5532 0.13001C33.9116 -0.658206 28.9074 2.27469 25.2412 5.22592C24.9113 5.50088 24.5813 5.7575 24.2697 6.01413C23.6281 5.90415 22.29 5.68418 20.5853 5.40922C20.6036 5.40922 20.6403 5.40922 20.6586 5.40922L21.6484 4.62101C21.7768 4.52935 21.7768 4.32772 21.6484 4.1994L20.8786 3.24621C20.7686 3.09957 20.5853 3.06291 20.4569 3.17289L19.4671 3.9611C19.4671 3.9611 19.3938 4.07109 19.3755 4.14441L18.2206 5.06094C16.7725 4.82264 15.1961 4.56601 13.638 4.30939L14.6095 3.5395C14.7378 3.44785 14.7378 3.24621 14.6095 3.1179L13.8396 2.16471C13.7296 2.01806 13.5463 1.9814 13.418 2.09138L12.4281 2.8796C12.4281 2.8796 12.3548 2.98958 12.3365 3.0629L11.2183 3.94278C7.25892 3.3012 3.94108 2.78795 3.8311 2.82461C3.55614 2.91626 2.14468 4.12608 2.14468 4.12608C1.7964 4.40104 1.5581 4.65767 1.57643 4.69433C1.61309 4.73099 2.01636 4.45603 2.34632 4.1994L9.62357 6.85734C9.36694 7.09564 9.22029 7.31561 9.27528 7.38893C9.34861 7.48058 9.67856 7.3156 10.0085 7.04065L10.0452 7.00399L11.475 7.53557C11.2367 7.75554 11.09 7.97551 11.145 8.04883C11.2183 8.14048 11.5483 7.97551 11.8782 7.70055L13.1797 8.15881L13.9679 8.72706C13.6746 8.98369 13.473 9.24032 13.528 9.31364C13.6013 9.40529 13.9313 9.24032 14.2612 8.96536H14.2795L15.8376 10.0652C15.5444 10.3218 15.3427 10.5785 15.416 10.6518C15.4894 10.7434 15.8193 10.5785 16.1493 10.3035L17.579 11.33C15.1411 13.328 14.1879 14.1346 12.3732 15.601C10.5401 17.0675 8.87201 18.6073 7.53388 19.9821C5.37087 19.6521 1.09983 18.9372 1.09983 18.9372L0 19.6704L4.63764 23.2632C4.38101 23.6115 4.17937 23.8865 4.06939 24.1064C3.3545 24.7663 2.93289 25.2063 2.98788 25.2796C3.04288 25.3529 3.55614 25.0596 4.32602 24.5097C4.56432 24.4364 4.89427 24.2714 5.31587 24.0698L7.82717 29.4406L8.79869 28.5424C8.79869 28.5424 9.05532 23.9231 9.20197 21.8151C10.7784 20.8253 12.5748 19.6521 14.4445 18.3506C16.7175 16.5359 17.744 15.766 19.8521 14.1163L20.5303 15.7294C20.182 16.0226 19.962 16.2976 20.0354 16.3893C20.0903 16.4626 20.3836 16.3343 20.7136 16.096L21.4651 17.874H21.4468C21.0985 18.1673 20.8786 18.4606 20.9519 18.5339C21.0069 18.6073 21.3185 18.4789 21.6301 18.2406L22.0151 19.1205L22.1984 20.4953C21.8501 20.7703 21.6301 21.0636 21.7034 21.1552C21.7584 21.2285 21.9967 21.1369 22.2717 20.9352L22.4733 22.4567H22.4367C22.0884 22.75 21.8684 23.0433 21.9417 23.1349C21.9967 23.2082 22.2534 23.0983 22.5283 22.8966L23.5182 30.5771C23.2066 30.8521 22.8399 31.1821 22.8583 31.2187C22.8949 31.2554 23.1882 31.0721 23.5365 30.7971C23.5365 30.7971 25.0396 29.6789 25.1679 29.4406C25.2229 29.349 25.4429 25.9945 25.6995 21.9984L26.8177 21.1185C26.8177 21.1185 26.9643 21.1185 27.0193 21.0819L28.0092 20.2937C28.1375 20.202 28.1375 20.0004 28.0092 19.8721L27.2393 18.9189C27.1293 18.7722 26.946 18.7356 26.8177 18.8456L25.8462 19.6154C25.9378 18.039 26.0295 16.4626 26.1211 14.9778L27.2759 14.0613C27.2759 14.0613 27.4226 14.0613 27.4776 14.0246L28.4674 13.2364C28.5957 13.1447 28.5957 12.9431 28.4674 12.8148L27.6975 11.8616C27.5876 11.715 27.4043 11.6783 27.2759 11.7883L26.2861 12.5765C26.2861 12.5765 26.2861 12.6132 26.2494 12.6498C26.3594 10.9451 26.4327 9.60693 26.4694 8.94703C26.781 8.6904 27.111 8.43377 27.4592 8.15881L27.5509 8.08549Z" fill="#09857E"/>
</svg>
