<svg width="18" height="25" viewBox="0 0 18 25" fill="none" xmlns="http://www.w3.org/2000/svg">
<path d="M17.4396 8.54529C17.4396 3.93207 13.6987 0.191162 9.08543 0.191162C4.47221 0.191162 0.731314 3.93207 0.731314 8.54529C0.731314 8.54529 0.35386 11.4474 3.6586 16.1613C5.14322 18.2834 9.08543 24.5825 9.08543 24.5825C9.08543 24.5825 13.0276 18.2834 14.5123 16.1613C17.817 11.4474 17.4396 8.54529 17.4396 8.54529ZM9.08543 14.7857C5.72197 14.7857 2.996 12.0597 2.996 8.69627C2.996 5.33281 5.72197 2.60681 9.08543 2.60681C12.4489 2.60681 15.1749 5.33281 15.1749 8.69627C15.1749 12.0597 12.4489 14.7857 9.08543 14.7857Z" fill="#09857E"/>
</svg>
