<svg width="40" height="34" viewBox="0 0 40 34" fill="none" xmlns="http://www.w3.org/2000/svg">
<path d="M11.2137 8.95614C6.85101 7.21474 1.20516 5.8766 0.820219 6.81146C0.453607 7.76466 5.47622 10.6426 9.8389 12.384C10.2422 12.5489 10.6271 12.6956 11.012 12.8422C11.232 13.4471 11.7086 14.7303 12.3135 16.3434C12.2952 16.3434 12.2952 16.3067 12.2586 16.2884L11.0854 15.8301C10.9387 15.7751 10.7738 15.8668 10.7004 16.0318L10.2422 17.1683C10.1689 17.3332 10.2422 17.5165 10.3888 17.5715L11.562 18.0298C11.562 18.0298 11.6903 18.0298 11.7636 18.0298L13.1201 18.5797C13.6334 19.9545 14.1832 21.4576 14.7331 22.9241L13.5784 22.4658C13.4317 22.4108 13.2667 22.5025 13.1934 22.6674L12.7351 23.8039C12.6618 23.9689 12.7351 24.1522 12.8818 24.2072L14.0549 24.6655C14.0549 24.6655 14.1833 24.6655 14.2566 24.6655L15.5764 25.1971C16.9878 28.9548 18.1793 32.0894 18.2526 32.1627C18.4543 32.3643 20.214 32.9876 20.214 32.9876C20.6173 33.1525 20.9656 33.2442 20.9839 33.1892C20.9839 33.1525 20.5623 32.9326 20.1773 32.7676L18.8942 25.1421C19.2242 25.2521 19.4991 25.2704 19.5175 25.1971C19.5541 25.0871 19.2608 24.8854 18.8575 24.7205H18.8209L18.5643 23.199C18.8759 23.2907 19.1325 23.3273 19.1692 23.2357C19.2058 23.1257 18.9126 22.9241 18.5093 22.7591L18.271 21.3843L18.381 20.4311C18.7476 20.5594 19.0775 20.6144 19.1142 20.5044C19.1508 20.3944 18.8575 20.1928 18.4543 20.0278H18.436L18.6376 18.1031C19.0042 18.2314 19.3158 18.2681 19.3525 18.1764C19.3892 18.0665 19.0958 17.8648 18.6926 17.6998H18.6743L18.8575 15.9401C21.8088 17.0766 22.982 17.4982 25.145 18.3597C27.3263 19.2213 29.4893 19.8995 31.359 20.3944C32.1289 22.4291 33.632 26.5169 33.632 26.5169L34.8235 27.1034L35.6484 21.2926C36.07 21.3476 36.4183 21.366 36.6749 21.366C37.6097 21.6593 38.1963 21.8059 38.233 21.7326C38.2697 21.6409 37.7564 21.3476 36.9132 20.9444C36.7299 20.7794 36.4366 20.5594 36.0334 20.3028L39.4428 15.4635L38.178 15.0786C38.178 15.0786 34.0353 17.1499 32.1472 18.0665C30.5158 17.1866 28.5911 16.2151 26.5564 15.2252C23.8435 14.1437 22.6703 13.6488 20.1957 12.6223L21.2589 11.2291C21.6622 11.3941 22.0287 11.4491 22.0654 11.3391C22.102 11.2475 21.8455 11.0642 21.4788 10.8992L22.652 9.35942H22.6703C23.0736 9.52439 23.4402 9.57938 23.4769 9.4694C23.5135 9.37775 23.2569 9.17611 22.8903 9.02947L23.4769 8.25958L24.595 7.41637C24.9983 7.58135 25.3649 7.63634 25.4016 7.52636C25.4382 7.4347 25.2366 7.28806 24.9433 7.14141L26.1715 6.22488H26.2081C26.6114 6.40819 26.978 6.44485 27.0147 6.3532C27.0513 6.26155 26.8314 6.09657 26.5198 5.94993L32.6972 1.29395C33.0821 1.4406 33.5587 1.58724 33.577 1.55058C33.5953 1.49559 33.2838 1.33061 32.8805 1.16564C32.8805 1.16564 31.194 0.395752 30.9007 0.395752C30.7908 0.395752 27.7662 1.8622 24.1734 3.62194L22.8536 3.09035C22.8536 3.09035 22.7803 2.96204 22.7253 2.94371L21.5521 2.48544C21.4055 2.43045 21.2405 2.5221 21.1672 2.68708L20.7089 3.82358C20.6356 3.98855 20.709 4.17186 20.8556 4.22685L22.0104 4.68511C20.5989 5.38168 19.1692 6.07824 17.8494 6.73814L16.4929 6.18822C16.4929 6.18822 16.4196 6.05991 16.3646 6.04158L15.1914 5.58331C15.0448 5.52832 14.8798 5.61997 14.8065 5.78495L14.3482 6.92145C14.2749 7.08642 14.3482 7.26973 14.4949 7.32472L15.668 7.78299C15.668 7.78299 15.723 7.78299 15.7414 7.78299C14.2199 8.53454 13.0101 9.13945 12.4235 9.43274C12.0386 9.28609 11.6536 9.12112 11.2503 8.95614H11.2137Z" fill="#09857E"/>
</svg>
