<svg width="64" height="64" viewBox="0 0 64 64" fill="none" xmlns="http://www.w3.org/2000/svg">
<rect width="64" height="64" rx="32" fill="#F0F7F7"/>
<path d="M15 22.1429L15.6066 27.0221L16.0509 30.4783L16.3301 32.8553L18.4882 50.24C18.6095 51.2457 19.4133 52 20.3536 52H44.8314C45.7717 52 46.5755 51.2457 46.6969 50.24L50 22.1429L32.4864 19L15 22.1429Z" fill="#0074BA"/>
<path d="M14.0334 21.59L13.5084 18.065C13.4334 17.51 13.8684 17 14.4384 17H51.5634C52.1334 17 52.5684 17.51 52.4934 18.065L51.9534 21.59C51.8334 22.4 51.1434 23 50.3334 23H15.6684C14.8434 23 14.1534 22.4 14.0334 21.59Z" fill="#00A6ED"/>
<path d="M29.2609 28.8696L24.9565 32.0001L23 30.5771" stroke="white" stroke-width="1.56522" stroke-linecap="round" stroke-linejoin="round"/>
<path d="M29.2609 35.1304L24.9565 38.2608L23 36.8379" stroke="white" stroke-width="1.56522" stroke-linecap="round" stroke-linejoin="round"/>
<path d="M29.2609 41.3911L24.9565 44.5215L23 43.0986" stroke="white" stroke-width="1.56522" stroke-linecap="round" stroke-linejoin="round"/>
<path d="M33 29.9131H42.3913" stroke="white" stroke-width="1.56522" stroke-linecap="round"/>
<path d="M33 37.2173H42.3913" stroke="white" stroke-width="1.56522" stroke-linecap="round"/>
<path d="M33 43.478H42.3913" stroke="white" stroke-width="1.56522" stroke-linecap="round"/>
</svg>
