<svg width="32" height="32" viewBox="0 0 32 32" fill="none" xmlns="http://www.w3.org/2000/svg">
<path d="M2.66699 4.00033C2.66699 3.26395 3.26395 2.66699 4.00033 2.66699H12.0003C12.7367 2.66699 13.3337 3.26395 13.3337 4.00033V12.0003C13.3337 12.7367 12.7367 13.3337 12.0003 13.3337H4.00033C3.26395 13.3337 2.66699 12.7367 2.66699 12.0003V4.00033Z" fill="white"/>
<path d="M18.667 4.00033C18.667 3.26395 19.2639 2.66699 20.0003 2.66699H28.0003C28.7367 2.66699 29.3337 3.26395 29.3337 4.00033V12.0003C29.3337 12.7367 28.7367 13.3337 28.0003 13.3337H20.0003C19.2639 13.3337 18.667 12.7367 18.667 12.0003V4.00033Z" fill="white"/>
<path d="M18.667 20.0003C18.667 19.2639 19.2639 18.667 20.0003 18.667H28.0003C28.7367 18.667 29.3337 19.2639 29.3337 20.0003V28.0003C29.3337 28.7367 28.7367 29.3337 28.0003 29.3337H20.0003C19.2639 29.3337 18.667 28.7367 18.667 28.0003V20.0003Z" fill="white"/>
<path d="M2.66699 20.0003C2.66699 19.2639 3.26395 18.667 4.00033 18.667H12.0003C12.7367 18.667 13.3337 19.2639 13.3337 20.0003V28.0003C13.3337 28.7367 12.7367 29.3337 12.0003 29.3337H4.00033C3.26395 29.3337 2.66699 28.7367 2.66699 28.0003V20.0003Z" fill="white"/>
<path d="M2.66699 4.00033C2.66699 3.26395 3.26395 2.66699 4.00033 2.66699H12.0003C12.7367 2.66699 13.3337 3.26395 13.3337 4.00033V12.0003C13.3337 12.7367 12.7367 13.3337 12.0003 13.3337H4.00033C3.26395 13.3337 2.66699 12.7367 2.66699 12.0003V4.00033Z" stroke="white" stroke-width="2.66667"/>
<path d="M18.667 4.00033C18.667 3.26395 19.2639 2.66699 20.0003 2.66699H28.0003C28.7367 2.66699 29.3337 3.26395 29.3337 4.00033V12.0003C29.3337 12.7367 28.7367 13.3337 28.0003 13.3337H20.0003C19.2639 13.3337 18.667 12.7367 18.667 12.0003V4.00033Z" stroke="white" stroke-width="2.66667"/>
<path d="M18.667 20.0003C18.667 19.2639 19.2639 18.667 20.0003 18.667H28.0003C28.7367 18.667 29.3337 19.2639 29.3337 20.0003V28.0003C29.3337 28.7367 28.7367 29.3337 28.0003 29.3337H20.0003C19.2639 29.3337 18.667 28.7367 18.667 28.0003V20.0003Z" stroke="white" stroke-width="2.66667"/>
<path d="M2.66699 20.0003C2.66699 19.2639 3.26395 18.667 4.00033 18.667H12.0003C12.7367 18.667 13.3337 19.2639 13.3337 20.0003V28.0003C13.3337 28.7367 12.7367 29.3337 12.0003 29.3337H4.00033C3.26395 29.3337 2.66699 28.7367 2.66699 28.0003V20.0003Z" stroke="white" stroke-width="2.66667"/>
</svg>
