<svg width="231" height="209" viewBox="0 0 231 209" fill="none" xmlns="http://www.w3.org/2000/svg">
<path d="M40.5768 199.144C40.4281 199.474 40.0935 199.657 39.7589 199.657C39.6288 199.657 39.4987 199.639 39.3872 199.584C37.7329 198.832 36.1158 198.044 34.5358 197.219C34.0897 196.981 33.9224 196.449 34.1641 196.009C34.4057 195.569 34.9447 195.404 35.3909 195.643C36.915 196.449 38.5136 197.237 40.1307 197.971C40.5768 198.172 40.7813 198.704 40.5768 199.144ZM37.4169 60.5644C37.7329 60.1794 37.6585 59.6112 37.2682 59.3179C36.8779 59.0063 36.3016 59.0796 36.0042 59.4645C34.8704 60.8577 33.7737 62.2508 32.7142 63.6439C32.4168 64.0289 32.4912 64.5971 32.8815 64.8904C33.0488 65.0187 33.2347 65.0737 33.4206 65.0737C33.6994 65.0737 33.9596 64.9454 34.1455 64.7254C35.205 63.3506 36.3016 61.9575 37.4169 60.5827V60.5644ZM30.8183 193.021C29.3127 192.086 27.8443 191.097 26.4502 190.088C26.0413 189.795 25.4836 189.887 25.1862 190.272C24.8888 190.675 24.9818 191.225 25.3721 191.518C26.8034 192.563 28.309 193.571 29.8517 194.524C30.0004 194.616 30.1677 194.653 30.335 194.653C30.6324 194.653 30.9298 194.506 31.0971 194.231C31.3573 193.81 31.2458 193.26 30.8183 193.003V193.021ZM24.6286 76.347C24.2197 76.0721 23.6435 76.2004 23.3832 76.6037C22.3795 78.1068 21.413 79.5915 20.4836 81.0763C20.2233 81.4979 20.3535 82.0478 20.781 82.3045C20.9297 82.3961 21.097 82.4328 21.2643 82.4328C21.5617 82.4328 21.8591 82.2861 22.0263 82.0112C22.9557 80.5447 23.9037 79.06 24.8888 77.5752C25.1677 77.1719 25.0561 76.6037 24.6286 76.347ZM18.5133 183.269C18.1601 182.921 17.5839 182.903 17.2307 183.269C16.8776 183.618 16.859 184.186 17.2307 184.534C18.4761 185.799 19.7958 187.027 21.1713 188.2C21.3386 188.347 21.5617 188.42 21.7661 188.42C22.0263 188.42 22.268 188.31 22.4539 188.109C22.7884 187.742 22.7327 187.174 22.3609 186.844C21.0226 185.707 19.7401 184.498 18.5319 183.269H18.5133ZM49.9821 43.3703C48.7554 44.6901 47.5658 45.9915 46.3761 47.293C46.0416 47.6596 46.0787 48.2279 46.4505 48.5578C46.6178 48.7045 46.8408 48.7778 47.0453 48.7778C47.2869 48.7778 47.5472 48.6678 47.7144 48.4845C48.8855 47.183 50.0751 45.8816 51.2833 44.5801C51.6179 44.2135 51.5993 43.6452 51.2275 43.3153C50.8558 42.9853 50.2795 43.0037 49.945 43.3703H49.9821ZM60.2611 204.423C58.5139 204.056 56.7852 203.635 55.0937 203.195C54.6105 203.048 54.1086 203.36 53.9785 203.818C53.8484 204.295 54.1458 204.79 54.629 204.9C56.3391 205.358 58.1049 205.761 59.8708 206.146C59.9265 206.146 60.0009 206.164 60.0566 206.164C60.4656 206.164 60.8559 205.871 60.9488 205.468C61.0604 204.991 60.7444 204.515 60.2611 204.405V204.423ZM44.127 51.1974C43.7553 50.8858 43.1791 50.9225 42.8445 51.2891C41.6735 52.6456 40.521 54.002 39.3872 55.3401C39.0712 55.7251 39.127 56.275 39.4987 56.605C39.666 56.7333 39.8705 56.8066 40.0749 56.8066C40.3352 56.8066 40.5954 56.6966 40.7813 56.4767C41.8965 55.1385 43.049 53.8004 44.22 52.4439C44.536 52.0773 44.4988 51.5091 44.127 51.1791V51.1974ZM66.2277 28.2292C65.8746 27.8809 65.2983 27.8626 64.9452 28.2109C63.6441 29.4573 62.3801 30.6855 61.1161 31.9136C60.763 32.2619 60.763 32.8302 61.1161 33.1785C61.2834 33.3618 61.5251 33.4351 61.7481 33.4351C61.9712 33.4351 62.2128 33.3434 62.3801 33.1785C63.6255 31.9503 64.8894 30.7222 66.1906 29.494C66.5437 29.1457 66.5623 28.5775 66.2091 28.2292H66.2277ZM50.0193 201.728C48.3092 201.178 46.6364 200.592 45.0192 199.987C44.5546 199.804 44.0341 200.042 43.8482 200.5C43.6623 200.958 43.904 201.472 44.3687 201.655C46.0044 202.278 47.7145 202.883 49.4617 203.433C49.5546 203.47 49.6476 203.47 49.7405 203.47C50.1308 203.47 50.484 203.231 50.5955 202.847C50.7442 202.37 50.484 201.875 50.0193 201.728ZM54.9636 40.7307C56.1718 39.4658 57.3986 38.201 58.6626 36.9362C59.0157 36.5879 58.9971 36.0197 58.6626 35.6714C58.3094 35.3231 57.7332 35.3415 57.38 35.6714C56.1161 36.9546 54.8707 38.2194 53.6625 39.4842C53.3279 39.8508 53.3279 40.4007 53.6997 40.749C53.867 40.914 54.09 40.9873 54.3131 40.9873C54.5547 40.9873 54.7963 40.8956 54.9636 40.7123V40.7307ZM0.910794 141.659C1.41266 141.659 1.803 141.274 1.82159 140.779C1.82159 139.056 1.91453 137.315 2.04464 135.573C2.08181 135.078 1.71006 134.657 1.2082 134.62C0.724918 134.602 0.278814 134.95 0.241639 135.445C0.0929382 137.223 0.0185876 139.019 0 140.779C0 141.274 0.39034 141.677 0.892206 141.677L0.910794 141.659ZM2.52792 151.154C2.26769 149.468 2.08181 147.726 1.97029 145.985C1.93311 145.49 1.5056 145.123 1.00373 145.16C0.501866 145.197 0.130113 145.618 0.167289 146.113C0.278814 147.891 0.483278 149.688 0.743505 151.429C0.817856 151.869 1.18961 152.199 1.63571 152.199C1.67289 152.199 1.72865 152.199 1.76582 152.199C2.26769 152.126 2.60227 151.667 2.52792 151.191V151.154ZM1.61712 131.137C1.61712 131.137 1.71006 131.137 1.74724 131.137C2.19334 131.137 2.58368 130.807 2.63944 130.367C2.88108 128.681 3.17848 126.939 3.53165 125.216C3.62459 124.74 3.3086 124.263 2.82532 124.172C2.34204 124.08 1.85876 124.392 1.76582 124.868C1.41266 126.628 1.09667 128.388 0.855031 130.111C0.78068 130.606 1.13385 131.046 1.61712 131.119V131.137ZM3.62459 120.78C3.62459 120.78 3.77329 120.817 3.84764 120.817C4.25657 120.817 4.60973 120.542 4.72126 120.157C5.14877 118.507 5.65064 116.803 6.18968 115.135C6.33838 114.658 6.07816 114.163 5.59488 114.016C5.1116 113.87 4.60973 114.126 4.46103 114.603C3.92199 116.308 3.42012 118.031 2.97402 119.717C2.84391 120.194 3.14131 120.689 3.62459 120.799V120.78ZM27.1379 73.5974C27.4168 73.5974 27.7142 73.4691 27.8814 73.2125C28.8852 71.801 29.9075 70.3712 30.967 68.9231C31.2644 68.5199 31.1715 67.9699 30.7625 67.6766C30.3536 67.3834 29.796 67.475 29.4986 67.8783C28.4205 69.3264 27.3982 70.7562 26.3944 72.2043C26.1156 72.6076 26.2086 73.1575 26.6175 73.4508C26.7662 73.5608 26.9521 73.6158 27.1379 73.6158V73.5974ZM11.8775 175.222C11.5987 174.819 11.0411 174.709 10.6135 174.984C10.2046 175.259 10.0931 175.809 10.3719 176.23C11.3756 177.697 12.4723 179.145 13.6061 180.52C13.792 180.74 14.0522 180.85 14.3125 180.85C14.5169 180.85 14.7214 180.776 14.8887 180.648C15.279 180.337 15.3348 179.768 15.0188 179.402C13.9035 178.064 12.8441 176.652 11.8775 175.241V175.222ZM10.7437 100.91C10.8738 100.965 10.9853 100.983 11.1154 100.983C11.4686 100.983 11.7846 100.782 11.9333 100.47C12.6582 98.912 13.4203 97.3356 14.2195 95.7408C14.4426 95.3009 14.2567 94.7693 13.8106 94.5493C13.3645 94.3294 12.8255 94.5126 12.6024 94.9526C11.7846 96.5657 11.0039 98.1604 10.279 99.7369C10.0745 100.177 10.279 100.708 10.7251 100.91H10.7437ZM3.53165 156.268C3.42012 155.792 2.93685 155.48 2.45357 155.609C1.97029 155.719 1.67289 156.195 1.78441 156.672C2.19334 158.413 2.69521 160.155 3.25284 161.823C3.38295 162.189 3.73611 162.428 4.10787 162.428C4.2008 162.428 4.29374 162.428 4.38668 162.391C4.85137 162.244 5.1116 161.731 4.9629 161.273C4.42386 159.641 3.94058 157.955 3.53165 156.268ZM9.33099 104.118C8.8663 103.935 8.34585 104.155 8.15997 104.594C7.47223 106.263 6.82166 107.912 6.20827 109.544C6.04098 110.002 6.28262 110.515 6.74731 110.68C6.84025 110.717 6.95177 110.735 7.0633 110.735C7.43505 110.735 7.78822 110.515 7.91833 110.149C8.51313 108.536 9.14511 106.904 9.83286 105.254C10.0187 104.796 9.79568 104.283 9.34958 104.1L9.33099 104.118ZM6.82166 166.13C6.6172 165.672 6.09674 165.47 5.63205 165.672C5.16736 165.874 4.9629 166.387 5.16736 166.845C5.89228 168.477 6.69155 170.09 7.56517 171.666C7.73245 171.959 8.02986 172.124 8.36443 172.124C8.51313 172.124 8.66184 172.088 8.79195 172.014C9.23805 171.776 9.38675 171.245 9.14511 170.805C8.30867 169.283 7.52799 167.725 6.82166 166.149V166.13ZM18.978 85.2924C18.5505 85.0357 17.9928 85.1824 17.7326 85.6223C16.8218 87.1804 15.9482 88.7202 15.0932 90.2416C14.8515 90.6815 15.0188 91.2132 15.4649 91.4514C15.595 91.5248 15.7437 91.5614 15.8924 91.5614C16.2084 91.5614 16.5244 91.3964 16.6917 91.1032C17.5281 89.5817 18.4018 88.0603 19.294 86.5205C19.5542 86.0989 19.4055 85.549 18.9594 85.3107L18.978 85.2924ZM193.181 177.257C191.62 178.119 190.059 178.943 188.497 179.768C188.051 180.007 187.884 180.538 188.125 180.978C188.293 181.271 188.609 181.455 188.925 181.455C189.073 181.455 189.222 181.418 189.352 181.345C190.914 180.52 192.493 179.677 194.073 178.815C194.501 178.577 194.668 178.027 194.427 177.605C194.185 177.184 193.627 177.019 193.2 177.257H193.181ZM174.148 186.771C172.512 187.504 170.895 188.219 169.278 188.915C168.813 189.117 168.608 189.63 168.813 190.088C168.962 190.418 169.296 190.62 169.649 190.62C169.761 190.62 169.891 190.602 170.002 190.547C171.638 189.85 173.274 189.117 174.91 188.384C175.356 188.182 175.56 187.65 175.356 187.211C175.151 186.771 174.612 186.569 174.166 186.771H174.148ZM183.757 182.188C182.159 182.994 180.56 183.764 178.98 184.516C178.534 184.736 178.348 185.267 178.553 185.707C178.701 186.019 179.036 186.202 179.371 186.202C179.501 186.202 179.631 186.166 179.761 186.111C181.36 185.341 182.958 184.571 184.575 183.764C185.021 183.544 185.189 183.013 184.966 182.573C184.742 182.133 184.203 181.95 183.757 182.188ZM144.314 198.117C142.604 198.649 140.894 199.144 139.203 199.62C138.719 199.749 138.441 200.244 138.589 200.72C138.701 201.105 139.073 201.362 139.463 201.362C139.537 201.362 139.63 201.362 139.705 201.325C141.415 200.848 143.125 200.335 144.853 199.804C145.337 199.657 145.597 199.162 145.448 198.685C145.3 198.209 144.798 197.952 144.314 198.099V198.117ZM164.37 190.968C162.716 191.647 161.062 192.288 159.408 192.911C158.943 193.095 158.701 193.608 158.887 194.066C159.017 194.414 159.37 194.634 159.724 194.634C159.835 194.634 159.947 194.616 160.058 194.579C161.712 193.956 163.385 193.296 165.04 192.618C165.504 192.435 165.727 191.903 165.523 191.463C165.337 191.005 164.798 190.785 164.352 190.987L164.37 190.968ZM154.426 194.763C152.735 195.368 151.062 195.936 149.389 196.504C148.924 196.669 148.664 197.164 148.813 197.641C148.943 198.007 149.296 198.246 149.668 198.246C149.761 198.246 149.853 198.246 149.965 198.191C151.656 197.622 153.348 197.054 155.039 196.449C155.504 196.284 155.746 195.771 155.578 195.313C155.411 194.854 154.891 194.616 154.426 194.781V194.763ZM202.419 171.978C200.877 172.894 199.352 173.774 197.828 174.654C197.401 174.892 197.252 175.442 197.494 175.864C197.661 176.157 197.958 176.304 198.274 176.304C198.423 176.304 198.59 176.267 198.72 176.175C200.263 175.296 201.806 174.397 203.349 173.481C203.776 173.224 203.906 172.674 203.665 172.253C203.404 171.831 202.847 171.703 202.419 171.941V171.978ZM220.301 160.484C218.832 161.493 217.364 162.483 215.895 163.472C215.486 163.747 215.375 164.297 215.654 164.719C215.821 164.976 216.118 165.104 216.397 165.104C216.564 165.104 216.75 165.049 216.899 164.957C218.367 163.967 219.854 162.977 221.323 161.951C221.732 161.676 221.825 161.108 221.546 160.704C221.267 160.301 220.691 160.21 220.282 160.484H220.301ZM230.208 154.49C229.91 154.105 229.334 154.014 228.944 154.307C227.513 155.37 226.081 156.397 224.65 157.423C224.241 157.717 224.148 158.266 224.446 158.67C224.632 158.908 224.892 159.036 225.171 159.036C225.356 159.036 225.542 158.981 225.71 158.871C227.141 157.845 228.591 156.8 230.022 155.737C230.412 155.444 230.505 154.875 230.208 154.49ZM211.453 166.387C209.947 167.358 208.46 168.293 206.955 169.228C206.527 169.485 206.397 170.035 206.676 170.456C206.843 170.731 207.141 170.878 207.438 170.878C207.605 170.878 207.773 170.841 207.921 170.75C209.427 169.815 210.932 168.862 212.438 167.89C212.866 167.615 212.977 167.065 212.698 166.662C212.419 166.259 211.862 166.13 211.453 166.405V166.387ZM81.3581 207.044C79.5736 206.971 77.8078 206.861 76.042 206.714C75.5215 206.641 75.1126 207.044 75.0754 207.521C75.0383 208.016 75.41 208.437 75.8933 208.474C77.6591 208.621 79.4621 208.731 81.2651 208.804H81.3023C81.7856 208.804 82.1759 208.437 82.2131 207.961C82.2317 207.466 81.8413 207.044 81.3581 207.026V207.044ZM90.0199 8.32214C90.4102 8.01052 90.4474 7.44228 90.1314 7.05734C89.8154 6.69072 89.2392 6.63573 88.8489 6.94735C87.4734 8.10218 86.1165 9.23868 84.7782 10.3752C84.4064 10.7051 84.3507 11.255 84.6852 11.64C84.8711 11.8416 85.1128 11.9516 85.373 11.9516C85.5774 11.9516 85.8005 11.8783 85.9678 11.7316C87.3061 10.5951 88.663 9.45864 90.0385 8.30382L90.0199 8.32214ZM80.7261 13.858C79.3692 15.0311 78.0309 16.2043 76.7297 17.3775C76.358 17.7074 76.3208 18.2757 76.6554 18.6423C76.8413 18.8439 77.0829 18.9356 77.3245 18.9356C77.5476 18.9356 77.7521 18.8622 77.9379 18.7156C79.2391 17.5424 80.5774 16.3876 81.9343 15.2145C82.306 14.8845 82.3432 14.3346 82.0086 13.9496C81.674 13.583 81.0978 13.5464 80.7261 13.8763V13.858ZM134.054 200.995C132.325 201.435 130.597 201.857 128.887 202.26C128.403 202.37 128.106 202.847 128.217 203.323C128.31 203.726 128.682 204.02 129.091 204.02C129.165 204.02 129.221 204.02 129.296 204.001C131.024 203.598 132.771 203.176 134.519 202.737C135.002 202.608 135.299 202.132 135.169 201.655C135.039 201.178 134.537 200.885 134.073 201.013L134.054 200.995ZM91.9902 207.118C90.6147 207.154 89.2578 207.173 87.9195 207.173H86.6741C86.2094 207.099 85.7633 207.557 85.7633 208.052C85.7633 208.547 86.1537 208.951 86.6555 208.951H87.9195C89.2764 208.951 90.6519 208.951 92.0459 208.896C92.5478 208.896 92.9381 208.474 92.9196 207.979C92.9196 207.484 92.5106 207.118 91.9902 207.118ZM70.7631 206.164C68.9787 205.944 67.2315 205.688 65.5028 205.413C65.0195 205.34 64.5362 205.651 64.4619 206.146C64.369 206.641 64.7035 207.099 65.2054 207.173C66.9526 207.466 68.7371 207.722 70.5401 207.942C70.5772 207.942 70.6144 207.942 70.6516 207.942C71.0977 207.942 71.488 207.613 71.5438 207.154C71.5995 206.659 71.2464 206.219 70.7631 206.164ZM72.7706 20.9336C71.4508 22.1434 70.1311 23.3532 68.8486 24.5447C68.4954 24.893 68.4768 25.4429 68.8114 25.8095C68.9973 25.9928 69.2203 26.0845 69.462 26.0845C69.685 26.0845 69.9081 26.0112 70.0754 25.8462C71.3579 24.6547 72.659 23.4449 73.9788 22.2534C74.3505 21.9235 74.3691 21.3552 74.0345 20.9886C73.7 20.622 73.1237 20.6037 72.752 20.9336H72.7706ZM113.199 205.23C111.433 205.486 109.667 205.724 107.92 205.944C107.418 205.999 107.065 206.439 107.139 206.934C107.195 207.393 107.585 207.722 108.031 207.722C108.068 207.722 108.106 207.722 108.143 207.722C109.909 207.521 111.674 207.283 113.477 207.008C113.979 206.934 114.314 206.476 114.24 205.999C114.165 205.504 113.719 205.175 113.217 205.248L113.199 205.23ZM123.682 203.378C121.935 203.726 120.188 204.075 118.44 204.368C117.957 204.46 117.623 204.918 117.715 205.394C117.79 205.834 118.18 206.128 118.608 206.128C118.663 206.128 118.719 206.128 118.775 206.128C120.522 205.816 122.288 205.486 124.054 205.12C124.537 205.028 124.853 204.551 124.76 204.056C124.667 203.58 124.184 203.268 123.701 203.36L123.682 203.378ZM98.3843 0.330006C98.0683 -0.0549366 97.4921 -0.109935 97.1204 0.201685C95.7263 1.31985 94.3322 2.43802 92.9753 3.55619C92.585 3.86781 92.5292 4.43606 92.8638 4.821C93.0497 5.04097 93.3099 5.15095 93.5701 5.15095C93.7746 5.15095 93.9791 5.07763 94.1463 4.94931C95.5032 3.83115 96.8787 2.73131 98.2728 1.61314C98.6631 1.30152 98.7189 0.733273 98.4029 0.366661L98.3843 0.330006ZM102.604 206.494C100.819 206.659 99.0535 206.788 97.2877 206.879C96.7858 206.916 96.414 207.338 96.4326 207.814C96.4698 208.291 96.8601 208.657 97.3248 208.657H97.3806C99.1464 208.547 100.949 208.419 102.752 208.254C103.254 208.217 103.607 207.777 103.57 207.283C103.533 206.788 103.087 206.458 102.585 206.476L102.604 206.494Z" fill="#09857E"/>
</svg>
