<svg width="72" height="111" viewBox="0 0 72 111" fill="none" xmlns="http://www.w3.org/2000/svg">
<path d="M-28.1737 105.1C-28.2518 105.273 -28.4275 105.37 -28.6031 105.37C-28.6714 105.37 -28.7397 105.36 -28.7983 105.331C-29.6668 104.937 -30.5158 104.523 -31.3453 104.09C-31.5795 103.965 -31.6673 103.686 -31.5404 103.455C-31.4136 103.224 -31.1306 103.137 -30.8964 103.262C-30.0962 103.686 -29.2569 104.099 -28.4079 104.484C-28.1737 104.59 -28.0664 104.869 -28.1737 105.1ZM-29.8327 32.346C-29.6668 32.1439 -29.7058 31.8456 -29.9108 31.6916C-30.1157 31.528 -30.4182 31.5665 -30.5743 31.7686C-31.1696 32.5 -31.7454 33.2314 -32.3016 33.9628C-32.4577 34.1649 -32.4187 34.4632 -32.2138 34.6172C-32.1259 34.6846 -32.0284 34.7134 -31.9308 34.7134C-31.7844 34.7134 -31.6478 34.6461 -31.5502 34.5306C-30.994 33.8088 -30.4182 33.0774 -29.8327 32.3557V32.346ZM-33.297 101.886C-34.0874 101.395 -34.8583 100.875 -35.5902 100.346C-35.8049 100.192 -36.0977 100.24 -36.2538 100.442C-36.4099 100.654 -36.3611 100.943 -36.1562 101.097C-35.4048 101.645 -34.6144 102.175 -33.8044 102.675C-33.7263 102.723 -33.6385 102.742 -33.5507 102.742C-33.3945 102.742 -33.2384 102.665 -33.1506 102.521C-33.014 102.3 -33.0725 102.011 -33.297 101.876V101.886ZM-36.5465 40.6319C-36.7612 40.4876 -37.0637 40.5549 -37.2004 40.7667C-37.7273 41.5558 -38.2348 42.3353 -38.7227 43.1148C-38.8593 43.3361 -38.791 43.6249 -38.5666 43.7596C-38.4885 43.8077 -38.4007 43.827 -38.3128 43.827C-38.1567 43.827 -38.0006 43.75 -37.9127 43.6056C-37.4248 42.8357 -36.9271 42.0562 -36.4099 41.2767C-36.2635 41.065 -36.3221 40.7667 -36.5465 40.6319ZM-39.7571 96.7662C-39.9425 96.5834 -40.245 96.5737 -40.4304 96.7662C-40.6158 96.9491 -40.6256 97.2474 -40.4304 97.4302C-39.7766 98.0943 -39.0838 98.739 -38.3616 99.3549C-38.2738 99.4319 -38.1567 99.4704 -38.0494 99.4704C-37.9127 99.4704 -37.7859 99.4127 -37.6883 99.3068C-37.5126 99.1143 -37.5419 98.816 -37.7371 98.6428C-38.4397 98.0461 -39.113 97.411 -39.7473 96.7662H-39.7571ZM-23.2359 23.3191C-23.88 24.012 -24.5045 24.6953 -25.1291 25.3786C-25.3047 25.571 -25.2852 25.8694 -25.0901 26.0426C-25.0022 26.1196 -24.8851 26.1581 -24.7778 26.1581C-24.6509 26.1581 -24.5143 26.1003 -24.4265 26.0041C-23.8117 25.3208 -23.1871 24.6376 -22.5528 23.9543C-22.3772 23.7618 -22.387 23.4635 -22.5821 23.2903C-22.7773 23.117 -23.0798 23.1267 -23.2555 23.3191H-23.2359ZM-17.8395 107.872C-18.7568 107.679 -19.6643 107.458 -20.5524 107.227C-20.8061 107.15 -21.0696 107.314 -21.1379 107.554C-21.2062 107.804 -21.05 108.064 -20.7963 108.122C-19.8985 108.363 -18.9715 108.574 -18.0444 108.776C-18.0151 108.776 -17.9761 108.786 -17.9468 108.786C-17.7321 108.786 -17.5272 108.632 -17.4784 108.42C-17.4199 108.17 -17.5858 107.92 -17.8395 107.862V107.872ZM-26.3099 27.4284C-26.505 27.2648 -26.8076 27.284 -26.9832 27.4765C-27.598 28.1887 -28.203 28.9008 -28.7983 29.6033C-28.9642 29.8054 -28.9349 30.0941 -28.7397 30.2673C-28.6519 30.3347 -28.5446 30.3732 -28.4372 30.3732C-28.3006 30.3732 -28.164 30.3155 -28.0664 30.2C-27.4809 29.4975 -26.8759 28.7949 -26.2611 28.0828C-26.0952 27.8903 -26.1147 27.592 -26.3099 27.4188V27.4284ZM-14.707 15.3701C-14.8924 15.1872 -15.1949 15.1776 -15.3803 15.3604C-16.0634 16.0148 -16.727 16.6596 -17.3906 17.3044C-17.576 17.4872 -17.576 17.7856 -17.3906 17.9684C-17.3028 18.0647 -17.1759 18.1032 -17.0588 18.1032C-16.9417 18.1032 -16.8148 18.055 -16.727 17.9684C-16.0732 17.3236 -15.4096 16.6789 -14.7265 16.0341C-14.5411 15.8512 -14.5314 15.5529 -14.7168 15.3701H-14.707ZM-23.2164 106.457C-24.1142 106.168 -24.9925 105.86 -25.8415 105.543C-26.0854 105.447 -26.3587 105.572 -26.4562 105.812C-26.5538 106.053 -26.427 106.322 -26.183 106.419C-25.3243 106.746 -24.4265 107.063 -23.5092 107.352C-23.4604 107.371 -23.4116 107.371 -23.3628 107.371C-23.1579 107.371 -22.9725 107.246 -22.9139 107.044C-22.8358 106.794 -22.9725 106.534 -23.2164 106.457ZM-20.6207 21.9333C-19.9864 21.2693 -19.3423 20.6053 -18.6787 19.9413C-18.4933 19.7584 -18.5031 19.4601 -18.6787 19.2772C-18.8641 19.0944 -19.1666 19.104 -19.3521 19.2772C-20.0156 19.9509 -20.6695 20.6149 -21.3038 21.2789C-21.4794 21.4714 -21.4794 21.7601 -21.2842 21.943C-21.1964 22.0296 -21.0793 22.0681 -20.9622 22.0681C-20.8353 22.0681 -20.7085 22.0199 -20.6207 21.9237V21.9333ZM-48.9984 74.9207C-48.7349 74.9207 -48.53 74.7186 -48.5202 74.4588C-48.5202 73.5541 -48.4714 72.6399 -48.4031 71.7257C-48.3836 71.4658 -48.5788 71.2445 -48.8423 71.2252C-49.096 71.2156 -49.3302 71.3985 -49.3497 71.6583C-49.4278 72.5918 -49.4668 73.5349 -49.4766 74.4588C-49.4766 74.7186 -49.2716 74.9303 -49.0082 74.9303L-48.9984 74.9207ZM-48.1494 79.9057C-48.286 79.0203 -48.3836 78.1061 -48.4422 77.1919C-48.4617 76.932 -48.6861 76.7395 -48.9496 76.7588C-49.2131 76.778 -49.4083 76.9994 -49.3887 77.2592C-49.3302 78.1927 -49.2228 79.1358 -49.0862 80.0501C-49.0472 80.281 -48.852 80.4542 -48.6178 80.4542C-48.5983 80.4542 -48.569 80.4542 -48.5495 80.4542C-48.286 80.4158 -48.1104 80.1752 -48.1494 79.9249V79.9057ZM-48.6276 69.3968C-48.6276 69.3968 -48.5788 69.3968 -48.5593 69.3968C-48.3251 69.3968 -48.1201 69.2235 -48.0909 68.9926C-47.964 68.1072 -47.8079 67.193 -47.6224 66.2884C-47.5737 66.0381 -47.7395 65.7879 -47.9933 65.7398C-48.247 65.6917 -48.5007 65.8553 -48.5495 66.1055C-48.7349 67.0294 -48.9008 67.9532 -49.0277 68.8578C-49.0667 69.1177 -48.8813 69.3487 -48.6276 69.3872V69.3968ZM-47.5737 63.9595C-47.5737 63.9595 -47.4956 63.9787 -47.4566 63.9787C-47.2419 63.9787 -47.0565 63.8343 -46.9979 63.6322C-46.7735 62.7661 -46.51 61.8711 -46.227 60.9954C-46.1489 60.7452 -46.2855 60.4853 -46.5393 60.4084C-46.793 60.3314 -47.0565 60.4661 -47.1345 60.7163C-47.4175 61.6113 -47.681 62.5159 -47.9152 63.4013C-47.9835 63.6515 -47.8274 63.9113 -47.5737 63.9691V63.9595ZM-35.2291 39.1884C-35.0828 39.1884 -34.9266 39.121 -34.8388 38.9863C-34.3118 38.2453 -33.7751 37.4946 -33.2189 36.7344C-33.0628 36.5227 -33.1115 36.234 -33.3262 36.08C-33.5409 35.926 -33.8337 35.9741 -33.9898 36.1858C-34.5558 36.9461 -35.0925 37.6967 -35.6195 38.457C-35.7659 38.6687 -35.7171 38.9574 -35.5024 39.1114C-35.4243 39.1691 -35.3267 39.198 -35.2291 39.198V39.1884ZM-43.2409 92.5415C-43.3873 92.3297 -43.68 92.272 -43.9045 92.4164C-44.1191 92.5607 -44.1777 92.8494 -44.0313 93.0707C-43.5044 93.8406 -42.9286 94.6009 -42.3333 95.3227C-42.2358 95.4381 -42.0991 95.4959 -41.9625 95.4959C-41.8552 95.4959 -41.7478 95.4574 -41.66 95.39C-41.4551 95.2264 -41.4258 94.9281 -41.5917 94.7356C-42.1772 94.0331 -42.7334 93.2921 -43.2409 92.5511V92.5415ZM-43.8361 53.5275C-43.7678 53.5564 -43.7093 53.566 -43.641 53.566C-43.4556 53.566 -43.2897 53.4601 -43.2116 53.2965C-42.831 52.4785 -42.4309 51.6509 -42.0113 50.8137C-41.8942 50.5827 -41.9918 50.3036 -42.226 50.1881C-42.4602 50.0727 -42.7432 50.1689 -42.8603 50.3998C-43.2897 51.2467 -43.6995 52.084 -44.0801 52.9116C-44.1875 53.1426 -44.0801 53.4216 -43.8459 53.5275H-43.8361ZM-47.6224 82.5907C-47.681 82.3405 -47.9347 82.1769 -48.1884 82.2442C-48.4422 82.302 -48.5983 82.5522 -48.5397 82.8024C-48.3251 83.7166 -48.0616 84.6309 -47.7688 85.5066C-47.7005 85.6991 -47.5151 85.8242 -47.3199 85.8242C-47.2711 85.8242 -47.2223 85.8242 -47.1736 85.805C-46.9296 85.728 -46.793 85.4585 -46.871 85.2179C-47.154 84.3614 -47.4078 83.4761 -47.6224 82.5907ZM-44.5778 55.2116C-44.8218 55.1154 -45.095 55.2309 -45.1926 55.4618C-45.5536 56.3376 -45.8952 57.2037 -46.2172 58.0602C-46.305 58.3008 -46.1782 58.5703 -45.9342 58.6569C-45.8854 58.6761 -45.8269 58.6857 -45.7683 58.6857C-45.5732 58.6857 -45.3877 58.5703 -45.3194 58.3778C-45.0072 57.5309 -44.6754 56.6744 -44.3143 55.8083C-44.2167 55.5677 -44.3338 55.2982 -44.568 55.202L-44.5778 55.2116ZM-45.8952 87.7682C-46.0025 87.5276 -46.2758 87.4217 -46.5197 87.5276C-46.7637 87.6334 -46.871 87.9029 -46.7637 88.1435C-46.3831 89 -45.9635 89.8469 -45.5049 90.6745C-45.417 90.8285 -45.2609 90.9151 -45.0852 90.9151C-45.0072 90.9151 -44.9291 90.8958 -44.8608 90.8573C-44.6266 90.7322 -44.5485 90.4531 -44.6754 90.2222C-45.1145 89.4234 -45.5244 88.6054 -45.8952 87.7778V87.7682ZM-39.5131 45.3282C-39.7376 45.1935 -40.0303 45.2705 -40.1669 45.5015C-40.6451 46.3195 -41.1038 47.1278 -41.5527 47.9266C-41.6795 48.1576 -41.5917 48.4366 -41.3575 48.5617C-41.2892 48.6002 -41.2111 48.6195 -41.133 48.6195C-40.9671 48.6195 -40.8012 48.5329 -40.7134 48.3789C-40.2743 47.5801 -39.8156 46.7814 -39.3472 45.973C-39.2106 45.7517 -39.2887 45.463 -39.5229 45.3379L-39.5131 45.3282ZM51.9436 93.6097C51.1239 94.062 50.3042 94.495 49.4845 94.9281C49.2502 95.0532 49.1624 95.3323 49.2893 95.5633C49.3771 95.7172 49.543 95.8135 49.7089 95.8135C49.787 95.8135 49.865 95.7942 49.9333 95.7557C50.7531 95.3227 51.5825 94.88 52.412 94.4277C52.6364 94.3026 52.7243 94.0139 52.5974 93.7925C52.4706 93.5712 52.1778 93.4846 51.9534 93.6097H51.9436ZM41.9509 98.6043C41.0921 98.9892 40.2431 99.3646 39.3941 99.7303C39.1502 99.8361 39.0428 100.106 39.1502 100.346C39.2283 100.519 39.4039 100.625 39.5893 100.625C39.6479 100.625 39.7162 100.616 39.7747 100.587C40.6335 100.221 41.4922 99.8361 42.351 99.4512C42.5852 99.3453 42.6925 99.0662 42.5852 98.8353C42.4778 98.6043 42.1948 98.4984 41.9606 98.6043H41.9509ZM46.996 96.1984C46.1568 96.6218 45.3176 97.026 44.4881 97.4206C44.2539 97.5361 44.1563 97.8152 44.2636 98.0461C44.3417 98.2097 44.5174 98.306 44.693 98.306C44.7613 98.306 44.8296 98.2867 44.8979 98.2579C45.7372 97.8537 46.5764 97.4495 47.4254 97.026C47.6596 96.9105 47.7474 96.6315 47.6303 96.4005C47.5132 96.1695 47.2302 96.0733 46.996 96.1984ZM26.2885 104.561C25.3907 104.84 24.4929 105.1 23.6049 105.35C23.3512 105.418 23.2048 105.678 23.2829 105.928C23.3414 106.13 23.5366 106.265 23.7415 106.265C23.7805 106.265 23.8293 106.265 23.8684 106.245C24.7662 105.995 25.6639 105.726 26.5715 105.447C26.8252 105.37 26.9618 105.11 26.8837 104.86C26.8057 104.609 26.5422 104.475 26.2885 104.552V104.561ZM36.8179 100.808C35.9494 101.164 35.0809 101.501 34.2124 101.828C33.9684 101.924 33.8416 102.194 33.9391 102.434C34.0075 102.617 34.1929 102.733 34.3783 102.733C34.4368 102.733 34.4954 102.723 34.5539 102.704C35.4224 102.377 36.3007 102.03 37.1692 101.674C37.4132 101.578 37.5303 101.299 37.4229 101.068C37.3253 100.827 37.0424 100.712 36.8082 100.818L36.8179 100.808ZM31.5971 102.8C30.7091 103.118 29.8308 103.416 28.9526 103.714C28.7086 103.801 28.572 104.061 28.65 104.311C28.7183 104.504 28.9038 104.629 29.0989 104.629C29.1477 104.629 29.1965 104.629 29.2551 104.6C30.1431 104.301 31.0311 104.003 31.9191 103.686C32.1631 103.599 32.29 103.329 32.2021 103.089C32.1143 102.848 31.8411 102.723 31.5971 102.81V102.8ZM56.7936 90.8381C55.9836 91.3193 55.1834 91.7812 54.3832 92.2431C54.1588 92.3682 54.0807 92.6569 54.2076 92.8783C54.2954 93.0322 54.4515 93.1092 54.6174 93.1092C54.6955 93.1092 54.7833 93.09 54.8516 93.0419C55.6616 92.5799 56.4715 92.1084 57.2815 91.6272C57.5059 91.4925 57.5742 91.2038 57.4474 90.9824C57.3108 90.7611 57.018 90.6937 56.7936 90.8188V90.8381ZM66.1813 84.8041C65.4103 85.3334 64.6394 85.8531 63.8685 86.3727C63.6538 86.5171 63.5952 86.8058 63.7416 87.0272C63.8295 87.1619 63.9856 87.2292 64.132 87.2292C64.2198 87.2292 64.3174 87.2004 64.3954 87.1523C65.1664 86.6326 65.947 86.1129 66.718 85.574C66.9327 85.4296 66.9814 85.1313 66.8351 84.9196C66.6887 84.7079 66.3862 84.6597 66.1715 84.8041H66.1813ZM71.3825 81.6572C71.2264 81.4551 70.9239 81.407 70.719 81.561C69.9676 82.1191 69.2161 82.658 68.4647 83.197C68.2501 83.3509 68.2013 83.6396 68.3574 83.8514C68.455 83.9765 68.5916 84.0438 68.738 84.0438C68.8356 84.0438 68.9332 84.015 69.021 83.9572C69.7724 83.4183 70.5335 82.8698 71.2849 82.3116C71.4899 82.1576 71.5387 81.8593 71.3825 81.6572ZM61.5362 87.9029C60.7458 88.4129 59.9651 88.9037 59.1747 89.3945C58.9502 89.5293 58.8819 89.818 59.0283 90.0393C59.1161 90.1837 59.2722 90.2607 59.4284 90.2607C59.5162 90.2607 59.604 90.2414 59.6821 90.1933C60.4725 89.7025 61.263 89.2021 62.0534 88.692C62.2778 88.5477 62.3364 88.259 62.19 88.0472C62.0436 87.8355 61.7509 87.7682 61.5362 87.9125V87.9029ZM-6.76358 109.248C-7.7004 109.209 -8.62746 109.152 -9.55452 109.075C-9.82775 109.036 -10.0424 109.248 -10.062 109.498C-10.0815 109.758 -9.88631 109.979 -9.63258 109.999C-8.70552 110.076 -7.75895 110.133 -6.81237 110.172H-6.79286C-6.53914 110.172 -6.33421 109.979 -6.31469 109.729C-6.30494 109.469 -6.50986 109.248 -6.76358 109.238V109.248ZM-2.21612 4.91887C-2.01119 4.75527 -1.99168 4.45694 -2.15757 4.25484C-2.32347 4.06237 -2.62598 4.0335 -2.83091 4.1971C-3.55303 4.80338 -4.26541 5.40005 -4.96802 5.99671C-5.16319 6.16993 -5.19247 6.45864 -5.01681 6.66073C-4.91923 6.76659 -4.79237 6.82433 -4.65575 6.82433C-4.5484 6.82433 -4.4313 6.78584 -4.34347 6.70885C-3.64086 6.11219 -2.92849 5.51553 -2.20636 4.90924L-2.21612 4.91887ZM-7.09538 7.82518C-7.80775 8.44109 -8.51036 9.057 -9.19345 9.67291C-9.38862 9.84614 -9.40814 10.1445 -9.23249 10.3369C-9.1349 10.4428 -9.00804 10.4909 -8.88118 10.4909C-8.76408 10.4909 -8.65674 10.4524 -8.55915 10.3754C-7.87606 9.75952 -7.17344 9.15324 -6.46107 8.53733C-6.2659 8.36411 -6.24638 8.0754 -6.42204 7.8733C-6.59769 7.68083 -6.9002 7.66159 -7.09538 7.83481V7.82518ZM20.9018 106.072C19.9942 106.303 19.0867 106.524 18.1889 106.736C17.9352 106.794 17.7791 107.044 17.8376 107.294C17.8864 107.506 18.0816 107.66 18.2963 107.66C18.3353 107.66 18.3646 107.66 18.4036 107.65C19.3112 107.439 20.2284 107.217 21.1457 106.986C21.3995 106.919 21.5556 106.669 21.4873 106.419C21.419 106.168 21.1555 106.014 20.9115 106.082L20.9018 106.072ZM-1.18172 109.286C-1.90385 109.306 -2.61622 109.315 -3.31883 109.315H-3.97265C-4.21661 109.277 -4.45082 109.517 -4.45082 109.777C-4.45082 110.037 -4.24589 110.249 -3.98241 110.249H-3.31883C-2.60646 110.249 -1.88433 110.249 -1.15244 110.22C-0.888966 110.22 -0.684036 109.999 -0.693794 109.739C-0.693794 109.479 -0.908482 109.286 -1.18172 109.286ZM-12.3259 108.786C-13.2627 108.671 -14.18 108.536 -15.0876 108.391C-15.3413 108.353 -15.595 108.517 -15.6341 108.776C-15.6829 109.036 -15.5072 109.277 -15.2437 109.315C-14.3264 109.469 -13.3896 109.604 -12.443 109.72C-12.4235 109.72 -12.404 109.72 -12.3845 109.72C-12.1503 109.72 -11.9454 109.546 -11.9161 109.306C-11.8868 109.046 -12.0722 108.815 -12.3259 108.786ZM-11.272 11.5399C-11.9649 12.175 -12.6577 12.8102 -13.3311 13.4357C-13.5165 13.6186 -13.5262 13.9073 -13.3506 14.0998C-13.253 14.196 -13.1359 14.2441 -13.009 14.2441C-12.8919 14.2441 -12.7748 14.2056 -12.687 14.119C-12.0137 13.4935 -11.3306 12.8583 -10.6377 12.2328C-10.4425 12.0596 -10.4328 11.7612 -10.6084 11.5688C-10.7841 11.3763 -11.0866 11.3667 -11.2818 11.5399H-11.272ZM9.95274 108.295C9.02568 108.43 8.09862 108.555 7.18132 108.671C6.91784 108.699 6.73243 108.93 6.77147 109.19C6.80074 109.431 7.00567 109.604 7.23987 109.604C7.25939 109.604 7.2789 109.604 7.29842 109.604C8.22548 109.498 9.15254 109.373 10.0991 109.229C10.3626 109.19 10.5382 108.95 10.4992 108.699C10.4602 108.44 10.226 108.266 9.9625 108.305L9.95274 108.295ZM15.4565 107.323C14.5392 107.506 13.6219 107.689 12.7046 107.843C12.4509 107.891 12.2753 108.132 12.3241 108.382C12.3631 108.613 12.568 108.767 12.7925 108.767C12.8217 108.767 12.851 108.767 12.8803 108.767C13.7976 108.603 14.7246 108.43 15.6517 108.237C15.9054 108.189 16.0713 107.939 16.0225 107.679C15.9737 107.429 15.72 107.266 15.4663 107.314L15.4565 107.323ZM2.17521 0.722994C2.00931 0.520899 1.7068 0.492025 1.51163 0.655625C0.779739 1.24266 0.0478516 1.8297 -0.664516 2.41674C-0.869446 2.58034 -0.898724 2.87867 -0.723068 3.08077C-0.625484 3.19625 -0.488861 3.25399 -0.352242 3.25399C-0.2449 3.25399 -0.137558 3.21549 -0.0497322 3.14813C0.66264 2.56109 1.38477 1.98368 2.11666 1.39664C2.32159 1.23304 2.35086 0.934709 2.18497 0.742238L2.17521 0.722994ZM4.39038 108.959C3.45357 109.046 2.52651 109.113 1.59946 109.161C1.33598 109.181 1.1408 109.402 1.15056 109.652C1.17008 109.902 1.37501 110.095 1.61897 110.095H1.64825C2.57531 110.037 3.52188 109.97 4.46846 109.883C4.73193 109.864 4.91735 109.633 4.89783 109.373C4.87831 109.113 4.64411 108.94 4.38063 108.95L4.39038 108.959Z" fill="#09857E"/>
</svg>
