<svg width="25" height="25" viewBox="0 0 25 25" fill="none" xmlns="http://www.w3.org/2000/svg">
<rect x="0.557617" y="0.778809" width="23.67" height="23.67" rx="11.835" fill="#F0F7F7"/>
<path d="M5.604 8.0694C5.604 7.41557 5.86374 6.78852 6.32607 6.32619C6.7884 5.86386 7.41545 5.60413 8.06928 5.60413H15.4651C16.1189 5.60413 16.746 5.86386 17.2083 6.32619C17.6707 6.78852 17.9304 7.41557 17.9304 8.0694V15.4652C17.9304 16.1191 17.6707 16.7461 17.2083 17.2085C16.746 17.6708 16.1189 17.9305 15.4651 17.9305H8.06928C7.41545 17.9305 6.7884 17.6708 6.32607 17.2085C5.86374 16.7461 5.604 16.1191 5.604 15.4652V8.0694ZM11.1509 11.151H8.6856C8.52214 11.151 8.36538 11.2159 8.2498 11.3315C8.13422 11.4471 8.06928 11.6039 8.06928 11.7673C8.06928 11.9308 8.13422 12.0875 8.2498 12.2031C8.36538 12.3187 8.52214 12.3836 8.6856 12.3836H11.1509V14.8489C11.1509 15.0124 11.2158 15.1691 11.3314 15.2847C11.447 15.4003 11.6037 15.4652 11.7672 15.4652C11.9307 15.4652 12.0874 15.4003 12.203 15.2847C12.3186 15.1691 12.3835 15.0124 12.3835 14.8489V12.3836H14.8488C15.0123 12.3836 15.169 12.3187 15.2846 12.2031C15.4002 12.0875 15.4651 11.9308 15.4651 11.7673C15.4651 11.6039 15.4002 11.4471 15.2846 11.3315C15.169 11.2159 15.0123 11.151 14.8488 11.151H12.3835V8.68572C12.3835 8.52227 12.3186 8.3655 12.203 8.24992C12.0874 8.13434 11.9307 8.0694 11.7672 8.0694C11.6037 8.0694 11.447 8.13434 11.3314 8.24992C11.2158 8.3655 11.1509 8.52227 11.1509 8.68572V11.151ZM16.0814 19.1632C16.8987 19.1632 17.6825 18.8385 18.2605 18.2606C18.8384 17.6827 19.163 16.8988 19.163 16.0816V7.16711C19.5378 7.38348 19.849 7.69468 20.0654 8.06944C20.2817 8.4442 20.3957 8.86931 20.3957 9.30204V16.0816C20.3957 17.2258 19.9411 18.3231 19.1321 19.1322C18.323 19.9413 17.2256 20.3958 16.0814 20.3958H9.30192C8.86918 20.3958 8.44407 20.2819 8.06932 20.0655C7.69456 19.8491 7.38336 19.5379 7.16699 19.1632H16.0814Z" fill="#2DC6BE"/>
</svg>
