<svg width="56" height="115" viewBox="0 0 56 115" fill="none" xmlns="http://www.w3.org/2000/svg">
<path d="M16.9602 11.4017C16.2096 10.8821 15.4493 10.3624 14.6794 9.85233C14.4677 9.70798 14.4003 9.41927 14.5447 9.20755C14.689 8.99584 14.9777 8.92847 15.1895 9.07282C15.969 9.58287 16.7388 10.1025 17.4895 10.6318C17.7012 10.7762 17.759 11.0745 17.605 11.2862C17.5184 11.421 17.3644 11.4883 17.22 11.4883C17.1238 11.4883 17.0372 11.4595 16.9506 11.4017H16.9602ZM12.8605 7.56192C12.081 7.07112 11.2919 6.58032 10.4932 6.09914C10.2718 5.96441 9.98312 6.03178 9.84839 6.26274C9.71366 6.48408 9.79064 6.77279 10.012 6.90752C10.8011 7.3887 11.5902 7.86988 12.3601 8.36068C12.4371 8.4088 12.5237 8.43767 12.6104 8.43767C12.7643 8.43767 12.9183 8.36068 13.0049 8.21633C13.1397 7.99498 13.0819 7.70628 12.8605 7.57155V7.56192ZM30.2407 21.8241C30.3658 21.8241 30.4909 21.7759 30.5872 21.6701C30.7604 21.4776 30.7508 21.1793 30.5583 21.006C29.875 20.3901 29.1821 19.7742 28.4796 19.1583C28.2871 18.9851 27.9888 19.014 27.8156 19.2064C27.6424 19.3989 27.6712 19.6972 27.8637 19.8705C28.5662 20.4768 29.2495 21.0927 29.9231 21.7086C30.0098 21.7952 30.1252 21.8337 30.2407 21.8337V21.8241ZM26.6511 106.627C25.8909 106.146 25.121 105.645 24.3415 105.126C24.1298 104.981 23.841 105.039 23.6871 105.251C23.5427 105.462 23.6005 105.751 23.8122 105.905C24.6013 106.434 25.3808 106.945 26.1411 107.426C26.2181 107.474 26.3047 107.493 26.3913 107.493C26.5453 107.493 26.6992 107.416 26.7859 107.272C26.9206 107.05 26.8532 106.762 26.6415 106.627H26.6511ZM8.0969 4.70372C7.29814 4.24179 6.48974 3.78948 5.67174 3.3468C5.44077 3.22169 5.16172 3.30831 5.03661 3.52965C4.9115 3.76061 4.99809 4.0397 5.21943 4.1648C6.02781 4.60749 6.83619 5.0598 7.62532 5.5121C7.70231 5.5506 7.77932 5.56984 7.85631 5.56984C8.01991 5.56984 8.17387 5.48323 8.26048 5.33888C8.38559 5.11754 8.30861 4.82883 8.08727 4.70372H8.0969ZM26.0545 18.196C26.1892 18.196 26.3239 18.1382 26.4105 18.0227C26.5741 17.8206 26.5453 17.5319 26.3528 17.3683C25.6407 16.7813 24.9285 16.1943 24.1971 15.6168C23.995 15.4629 23.6967 15.4917 23.5427 15.6938C23.3791 15.8959 23.4176 16.1943 23.6197 16.3482C24.3415 16.9257 25.0536 17.5031 25.7658 18.0901C25.8524 18.1671 25.9582 18.196 26.0641 18.196H26.0545ZM19.8665 101.902C19.6644 101.748 19.3661 101.786 19.2121 101.988C19.0581 102.19 19.0966 102.489 19.2987 102.643C20.0494 103.22 20.8 103.769 21.5314 104.298C21.618 104.356 21.7142 104.385 21.8008 104.385C21.9452 104.385 22.0896 104.317 22.1762 104.192C22.3302 103.98 22.282 103.692 22.0703 103.538C21.3389 103.008 20.5979 102.46 19.8569 101.892L19.8665 101.902ZM21.4255 14.6545C21.5122 14.7219 21.6084 14.7507 21.7046 14.7507C21.849 14.7507 21.9837 14.6834 22.0799 14.5679C22.2339 14.3658 22.1954 14.0675 21.9933 13.9135C21.2619 13.3553 20.5113 12.8068 19.7607 12.2582C19.5586 12.1042 19.2602 12.1524 19.1063 12.3641C18.9523 12.5758 19.0004 12.8645 19.2121 13.0185C19.9627 13.5574 20.7038 14.1059 21.4255 14.6641V14.6545ZM15.5552 98.4469C15.3531 98.2833 15.0644 98.3025 14.8911 98.5046C14.7275 98.7067 14.7468 98.9954 14.9489 99.1687C15.6706 99.775 16.3924 100.362 17.0949 100.93C17.1816 100.997 17.2874 101.036 17.3836 101.036C17.5184 101.036 17.6531 100.978 17.7493 100.862C17.9129 100.66 17.8744 100.362 17.6723 100.208C16.9698 99.6402 16.2577 99.0628 15.5359 98.4565L15.5552 98.4469ZM62.9993 74.821C63.2207 75.7257 63.4228 76.6206 63.6056 77.506C63.6538 77.7274 63.8462 77.8813 64.0676 77.8813C64.0964 77.8813 64.1349 77.8813 64.1638 77.8813C64.414 77.8332 64.5776 77.583 64.5295 77.3328C64.3466 76.4378 64.1445 75.5236 63.9232 74.6093C63.8655 74.3591 63.6152 74.2051 63.3554 74.2629C63.1052 74.3206 62.9512 74.5805 63.009 74.8307L62.9993 74.821ZM64.106 80.2199C64.26 81.1341 64.3851 82.0483 64.5006 82.9433C64.5295 83.1839 64.7316 83.3571 64.9626 83.3571C64.9818 83.3571 65.0011 83.3571 65.0203 83.3571C65.2801 83.3283 65.463 83.0973 65.4245 82.8375C65.3186 81.9232 65.1839 81.009 65.0299 80.0755C64.9914 79.8253 64.7412 79.6424 64.491 79.6906C64.2312 79.7291 64.0676 79.9697 64.106 80.2295V80.2199ZM3.20811 2.02837C2.39011 1.60493 1.56249 1.1815 0.725241 0.767684C0.494275 0.652201 0.215198 0.748437 0.0997149 0.979403C-0.0157679 1.21037 0.080469 1.48945 0.311435 1.60494C1.13906 2.01875 1.96669 2.43256 2.77507 2.856C2.84243 2.89449 2.91942 2.90412 2.98679 2.90412C3.15039 2.90412 3.31398 2.80788 3.40059 2.6539C3.51607 2.42294 3.42947 2.14385 3.1985 2.01875L3.20811 2.02837ZM61.5173 69.5088C61.7964 70.3942 62.0562 71.2796 62.3064 72.1553C62.3642 72.3574 62.5567 72.4921 62.7588 72.4921C62.7972 72.4921 62.8454 72.4921 62.8839 72.4729C63.1341 72.4055 63.2784 72.1457 63.2111 71.8955C62.9608 71.0101 62.701 70.1247 62.4123 69.2298C62.3353 68.9795 62.0755 68.8448 61.8253 68.9218C61.5751 68.9988 61.4403 69.2586 61.5173 69.5088ZM64.7701 85.6764C64.8374 86.6003 64.8856 87.5241 64.9144 88.4191C64.9144 88.6693 65.1262 88.8714 65.386 88.8714H65.3956C65.6554 88.8714 65.8575 88.6501 65.8479 88.3903C65.819 87.476 65.7709 86.5425 65.7036 85.5994C65.6843 85.3396 65.4534 85.1471 65.2031 85.1664C64.9433 85.1856 64.7508 85.407 64.7701 85.6668V85.6764ZM60.6416 66.9008C60.709 67.0933 60.8918 67.2184 61.0843 67.2184C61.1324 67.2184 61.1901 67.2184 61.2382 67.1896C61.4788 67.1029 61.6135 66.8335 61.5269 66.5929C61.2286 65.7268 60.9014 64.851 60.5646 63.9753C60.4683 63.7347 60.1989 63.6096 59.9583 63.7058C59.7177 63.8021 59.5926 64.0715 59.6888 64.3121C60.0257 65.1782 60.3336 66.0443 60.6416 66.9008ZM51.0854 47.057C51.172 47.2014 51.326 47.2784 51.4799 47.2784C51.5665 47.2784 51.6532 47.2591 51.7301 47.211C51.9515 47.0763 52.0189 46.7876 51.8841 46.5662C51.403 45.7867 50.9025 44.9976 50.3925 44.2181C50.2481 43.9967 49.9594 43.939 49.7477 44.0834C49.5264 44.2277 49.4686 44.5164 49.613 44.7281C50.123 45.5076 50.6138 46.2775 51.095 47.057H51.0854ZM56.4072 56.7287C56.4842 56.8923 56.6574 56.9886 56.8306 56.9886C56.898 56.9886 56.9654 56.9693 57.0327 56.9404C57.2637 56.825 57.3599 56.5459 57.2541 56.3149C56.8499 55.4873 56.4361 54.6597 56.0126 53.8224C55.8971 53.5914 55.6085 53.5048 55.3775 53.6203C55.1465 53.7358 55.0599 54.0245 55.1754 54.2555C55.5988 55.0831 56.0126 55.9011 56.4072 56.7191V56.7287ZM47.0242 113.931C46.1485 113.931 45.2439 113.864 44.32 113.748C44.0698 113.72 43.8292 113.902 43.8003 114.153C43.7715 114.412 43.9543 114.643 44.2045 114.672C45.1669 114.788 46.11 114.855 47.0242 114.855C47.284 114.855 47.4958 114.643 47.4958 114.393C47.4958 114.133 47.2937 113.922 47.0338 113.922L47.0242 113.931ZM31.4244 109.379C30.6353 108.965 29.8269 108.523 29.0185 108.051C28.7972 107.926 28.5085 108.003 28.3834 108.224C28.2583 108.446 28.3352 108.734 28.5566 108.86C29.3842 109.341 30.2022 109.783 31.001 110.207C31.0683 110.245 31.1453 110.255 31.2127 110.255C31.3763 110.255 31.5399 110.159 31.6265 110.005C31.742 109.774 31.6554 109.495 31.4244 109.37V109.379ZM57.0905 110.736C56.3783 111.285 55.6277 111.766 54.8289 112.18C54.598 112.295 54.5114 112.584 54.6269 112.815C54.7135 112.978 54.8771 113.065 55.0407 113.065C55.1176 113.065 55.185 113.046 55.2524 113.017C56.0896 112.584 56.9076 112.064 57.6583 111.487C57.8604 111.333 57.8989 111.035 57.7449 110.832C57.5813 110.63 57.2926 110.592 57.0905 110.746V110.736ZM59.2847 62.0121C59.5252 61.9158 59.6407 61.6368 59.5349 61.3962C59.1788 60.5493 58.8131 59.6928 58.4281 58.8459C58.3223 58.615 58.0432 58.5091 57.8123 58.6149C57.5717 58.7208 57.4754 58.9999 57.5813 59.2309C57.9662 60.0777 58.3319 60.915 58.6784 61.7619C58.7554 61.9447 58.9286 62.0506 59.1114 62.0506C59.1692 62.0506 59.2365 62.0409 59.2943 62.0121H59.2847ZM54.6942 51.378C54.2515 50.5696 53.7896 49.7613 53.318 48.9529C53.1929 48.7315 52.9042 48.6546 52.6829 48.7893C52.4615 48.924 52.3846 49.2031 52.5193 49.4244C52.9908 50.2232 53.4432 51.022 53.8762 51.8303C53.9628 51.9843 54.1168 52.0709 54.29 52.0709C54.367 52.0709 54.444 52.0517 54.5113 52.0132C54.7423 51.8881 54.8193 51.5994 54.6942 51.378ZM63.6922 101.632C63.442 101.546 63.1822 101.671 63.0956 101.921C62.7876 102.797 62.4412 103.634 62.0563 104.433C61.9408 104.664 62.037 104.943 62.2776 105.058C62.3449 105.087 62.4123 105.106 62.4797 105.106C62.6529 105.106 62.8165 105.01 62.9031 104.847C63.3073 104.019 63.6634 103.143 63.981 102.239C64.0676 101.998 63.9425 101.729 63.6922 101.642V101.632ZM65.4052 90.7192C65.1262 90.7095 64.9337 90.9116 64.9241 91.1715C64.8952 92.105 64.8471 93.0192 64.7605 93.9046C64.7412 94.1644 64.9241 94.3857 65.1839 94.4146C65.1935 94.4146 65.2128 94.4146 65.2224 94.4146C65.463 94.4146 65.6651 94.2318 65.6843 93.9912C65.7709 93.0866 65.819 92.1435 65.8479 91.2003C65.8479 90.9405 65.6554 90.7288 65.3956 90.7192H65.4052ZM52.3557 113.181C51.5184 113.44 50.633 113.633 49.7284 113.758C49.4686 113.796 49.2954 114.027 49.3243 114.287C49.3531 114.518 49.5552 114.691 49.7862 114.691C49.8054 114.691 49.8247 114.691 49.8535 114.691C50.8063 114.557 51.7494 114.355 52.6348 114.085C52.885 114.008 53.0197 113.748 52.9427 113.498C52.8657 113.248 52.6059 113.113 52.3557 113.19V113.181ZM64.9626 96.2335C64.7123 96.195 64.4621 96.3682 64.4236 96.6184C64.2793 97.5327 64.0868 98.4373 63.8751 99.2938C63.8077 99.544 63.9617 99.7942 64.2119 99.8616C64.2504 99.8616 64.2889 99.8712 64.3274 99.8712C64.5391 99.8712 64.7316 99.7268 64.7797 99.5151C65.0011 98.6297 65.1839 97.7059 65.3379 96.7628C65.3764 96.5029 65.2031 96.2623 64.9529 96.2239L64.9626 96.2335ZM61.373 106.637C61.1612 106.492 60.8629 106.55 60.7282 106.771C60.2278 107.532 59.6696 108.253 59.0825 108.898C58.9093 109.091 58.9189 109.389 59.1114 109.562C59.198 109.639 59.3135 109.687 59.429 109.687C59.5541 109.687 59.6792 109.639 59.7754 109.533C60.401 108.85 60.988 108.09 61.5173 107.291C61.6617 107.079 61.6039 106.781 61.3826 106.646L61.373 106.637ZM38.4592 28.8493C37.8337 28.166 37.1986 27.4923 36.5538 26.8187C36.3709 26.6358 36.0822 26.6262 35.8898 26.8091C35.7069 26.9919 35.6973 27.2806 35.8801 27.4731C36.5249 28.1371 37.1504 28.8108 37.7663 29.4844C37.8626 29.5806 37.9877 29.6384 38.1128 29.6384C38.2283 29.6384 38.3438 29.5999 38.4304 29.5133C38.6228 29.3401 38.6325 29.0417 38.4592 28.8493ZM36.4287 111.641C35.6011 111.314 34.7542 110.958 33.9073 110.573C33.6763 110.467 33.3972 110.573 33.2818 110.804C33.1759 111.035 33.2818 111.314 33.5127 111.419C34.3789 111.814 35.245 112.18 36.0919 112.517C36.1496 112.536 36.2073 112.545 36.2651 112.545C36.4479 112.545 36.6308 112.43 36.6981 112.247C36.7944 112.007 36.6693 111.737 36.4287 111.641ZM34.273 25.635C34.3885 25.635 34.5136 25.5869 34.6002 25.5003C34.783 25.3174 34.783 25.0191 34.6002 24.8362C33.9458 24.1818 33.2818 23.537 32.6081 22.8923C32.4253 22.7094 32.1269 22.719 31.9441 22.9115C31.7612 23.0944 31.7709 23.3927 31.9633 23.5755C32.637 24.2107 33.2914 24.8555 33.9458 25.5003C34.0324 25.5869 34.1575 25.635 34.273 25.635ZM47.2552 39.618C47.1012 39.4063 46.8125 39.3582 46.6008 39.5122C46.3891 39.6661 46.341 39.9548 46.4949 40.1666C47.0338 40.9172 47.5728 41.6678 48.0828 42.4185C48.1694 42.5532 48.3234 42.6206 48.4677 42.6206C48.564 42.6206 48.6506 42.5917 48.7372 42.534C48.9489 42.3896 49.0067 42.0913 48.8527 41.8796C48.333 41.1193 47.7941 40.359 47.2456 39.6084L47.2552 39.618ZM45.2246 38.136C45.3208 38.136 45.4267 38.1071 45.5037 38.0398C45.7058 37.8858 45.7539 37.5875 45.5903 37.3854C45.0321 36.654 44.4644 35.9226 43.8773 35.1912C43.7137 34.9891 43.425 34.9602 43.2229 35.1142C43.0208 35.2778 42.9919 35.5665 43.1459 35.7686C43.7233 36.4904 44.2911 37.2218 44.8397 37.9435C44.9359 38.0686 45.0707 38.1264 45.215 38.1264L45.2246 38.136ZM41.6543 113.267C40.7978 113.075 39.9124 112.834 39.0174 112.555C38.7672 112.478 38.5074 112.613 38.4304 112.863C38.3534 113.113 38.4881 113.373 38.7383 113.45C39.6526 113.739 40.5668 113.979 41.4522 114.181C41.4907 114.181 41.5195 114.191 41.558 114.191C41.7697 114.191 41.9622 114.047 42.0103 113.825C42.0681 113.575 41.9045 113.325 41.6543 113.267ZM40.3166 30.9183C40.1434 30.7259 39.845 30.7066 39.6526 30.8798C39.4601 31.0531 39.4409 31.3418 39.6141 31.5439C40.2204 32.2367 40.8266 32.9393 41.4137 33.6418C41.5099 33.7573 41.635 33.8054 41.7698 33.8054C41.8756 33.8054 41.9815 33.7669 42.0681 33.6995C42.2702 33.5359 42.2894 33.2376 42.1258 33.0355C41.5388 32.3234 40.9325 31.6208 40.3166 30.9183Z" fill="#09857E"/>
</svg>
