<svg width="126" height="218" viewBox="0 0 126 218" fill="none" xmlns="http://www.w3.org/2000/svg">
<path d="M32.5907 20.5274C31.1609 19.5375 29.7128 18.5477 28.2464 17.5761C27.8431 17.3012 27.7148 16.7513 27.9897 16.348C28.2647 15.9447 28.8146 15.8164 29.2179 16.0914C30.7027 17.0629 32.1691 18.0527 33.5989 19.0609C34.0022 19.3359 34.1122 19.9041 33.8189 20.3074C33.6539 20.564 33.3606 20.6923 33.0856 20.6923C32.9023 20.6923 32.7374 20.6373 32.5724 20.5274H32.5907ZM24.7819 13.2135C23.2971 12.2786 21.794 11.3437 20.2726 10.4272C19.851 10.1706 19.3011 10.2989 19.0444 10.7388C18.7878 11.1604 18.9344 11.7103 19.356 11.967C20.8591 12.8835 22.3623 13.8 23.8287 14.7349C23.9754 14.8265 24.1403 14.8815 24.3053 14.8815C24.5986 14.8815 24.8919 14.7349 25.0569 14.4599C25.3135 14.0383 25.2035 13.4884 24.7819 13.2318V13.2135ZM57.8869 40.3794C58.1252 40.3794 58.3636 40.2878 58.5469 40.0861C58.8768 39.7195 58.8585 39.1513 58.4919 38.8213C57.1904 37.6481 55.8706 36.475 54.5325 35.3018C54.1659 34.9719 53.5976 35.0269 53.2677 35.3935C52.9377 35.7601 52.9927 36.3283 53.3593 36.6583C54.6974 37.8131 55.9989 38.9863 57.2821 40.1594C57.447 40.3244 57.667 40.3977 57.8869 40.3977V40.3794ZM51.0497 201.909C49.6016 200.992 48.1351 200.039 46.6503 199.049C46.2471 198.774 45.6971 198.884 45.4038 199.287C45.1288 199.691 45.2388 200.241 45.6421 200.534C47.1452 201.542 48.63 202.514 50.0781 203.43C50.2248 203.522 50.3897 203.558 50.5547 203.558C50.848 203.558 51.1413 203.412 51.3063 203.137C51.5629 202.715 51.4346 202.165 51.0313 201.909H51.0497ZM15.7083 7.76926C14.1868 6.88939 12.647 6.02785 11.0889 5.18464C10.649 4.94635 10.1174 5.11132 9.87914 5.53293C9.64084 5.97286 9.80577 6.50445 10.2274 6.74275C11.7671 7.58595 13.3069 8.44749 14.81 9.30903C14.9567 9.38235 15.1034 9.41901 15.25 9.41901C15.5616 9.41901 15.8549 9.25404 16.0198 8.97908C16.2581 8.55747 16.1115 8.00756 15.6899 7.76926H15.7083ZM49.9132 33.4688C50.1698 33.4688 50.4264 33.3588 50.5914 33.1388C50.903 32.7539 50.848 32.204 50.4814 31.8923C49.125 30.7742 47.7685 29.656 46.3753 28.5562C45.9904 28.2629 45.4221 28.3179 45.1289 28.7028C44.8172 29.0878 44.8906 29.656 45.2755 29.9493C46.6503 31.0491 48.0068 32.149 49.3632 33.2671C49.5282 33.4138 49.7298 33.4688 49.9315 33.4688H49.9132ZM38.1266 192.908C37.7416 192.615 37.1734 192.688 36.8801 193.073C36.5868 193.458 36.6601 194.027 37.0451 194.32C38.4748 195.42 39.9046 196.464 41.2978 197.473C41.4627 197.583 41.646 197.638 41.811 197.638C42.086 197.638 42.361 197.509 42.5259 197.271C42.8192 196.868 42.7276 196.318 42.3243 196.025C40.9312 195.016 39.5197 193.972 38.1083 192.89L38.1266 192.908ZM41.0962 26.7231C41.2611 26.8514 41.4444 26.9064 41.6277 26.9064C41.9027 26.9064 42.1593 26.7781 42.3426 26.5581C42.6359 26.1732 42.5626 25.6049 42.1777 25.3116C40.7845 24.2485 39.3547 23.2036 37.9249 22.1588C37.54 21.8655 36.9718 21.9571 36.6785 22.3604C36.3852 22.7637 36.4768 23.3136 36.8801 23.6069C38.3099 24.6334 39.7214 25.6783 41.0962 26.7414V26.7231ZM29.9145 186.328C29.5295 186.016 28.9796 186.053 28.6497 186.438C28.338 186.823 28.3747 187.373 28.7596 187.702C30.1344 188.857 31.5093 189.975 32.8474 191.057C33.0124 191.185 33.214 191.259 33.3973 191.259C33.6539 191.259 33.9105 191.149 34.0939 190.929C34.4055 190.544 34.3321 189.975 33.9472 189.682C32.609 188.601 31.2526 187.501 29.8778 186.346L29.9145 186.328ZM120.284 141.326C120.706 143.049 121.091 144.754 121.439 146.44C121.531 146.862 121.897 147.155 122.319 147.155C122.374 147.155 122.447 147.155 122.502 147.155C122.979 147.064 123.291 146.587 123.199 146.11C122.851 144.406 122.466 142.664 122.044 140.923C121.934 140.446 121.458 140.153 120.963 140.263C120.486 140.373 120.193 140.868 120.303 141.344L120.284 141.326ZM122.392 151.61C122.686 153.351 122.924 155.092 123.144 156.797C123.199 157.255 123.584 157.585 124.024 157.585C124.06 157.585 124.097 157.585 124.134 157.585C124.629 157.53 124.977 157.09 124.904 156.595C124.702 154.854 124.445 153.113 124.152 151.335C124.079 150.858 123.602 150.51 123.126 150.601C122.631 150.675 122.319 151.133 122.392 151.628V151.61ZM6.39628 2.67335C4.83818 1.8668 3.26177 1.06026 1.66701 0.27204C1.22707 0.0520732 0.695499 0.23538 0.475531 0.675314C0.255564 1.11525 0.438872 1.64684 0.878807 1.8668C2.45524 2.65502 4.03167 3.44324 5.57144 4.24978C5.69975 4.3231 5.8464 4.34144 5.97471 4.34144C6.28633 4.34144 6.59794 4.15813 6.76292 3.86484C6.98288 3.4249 6.81792 2.89332 6.37799 2.65502L6.39628 2.67335ZM117.461 131.208C117.993 132.894 118.488 134.58 118.965 136.248C119.075 136.633 119.441 136.89 119.826 136.89C119.899 136.89 119.991 136.89 120.064 136.853C120.541 136.725 120.816 136.23 120.688 135.754C120.211 134.067 119.716 132.381 119.166 130.676C119.02 130.199 118.525 129.943 118.048 130.089C117.571 130.236 117.315 130.731 117.461 131.208ZM123.657 162.003C123.785 163.763 123.877 165.522 123.932 167.227C123.932 167.704 124.335 168.089 124.83 168.089H124.849C125.344 168.089 125.729 167.667 125.71 167.172C125.655 165.431 125.564 163.653 125.435 161.856C125.399 161.361 124.959 160.995 124.482 161.031C123.987 161.068 123.621 161.49 123.657 161.985V162.003ZM115.793 126.24C115.922 126.607 116.27 126.845 116.637 126.845C116.728 126.845 116.838 126.845 116.93 126.79C117.388 126.625 117.645 126.112 117.48 125.653C116.912 124.004 116.288 122.336 115.647 120.667C115.463 120.209 114.95 119.971 114.492 120.154C114.034 120.337 113.795 120.851 113.979 121.309C114.62 122.959 115.207 124.609 115.793 126.24ZM97.591 88.4423C97.756 88.7172 98.0493 88.8639 98.3426 88.8639C98.5076 88.8639 98.6726 88.8272 98.8192 88.7355C99.2408 88.4789 99.3691 87.929 99.1125 87.5074C98.196 86.0226 97.2428 84.5195 96.2712 83.0347C95.9963 82.6131 95.4464 82.5031 95.0431 82.7781C94.6215 83.0531 94.5115 83.603 94.7865 84.0062C95.758 85.491 96.6929 86.9575 97.6094 88.4423H97.591ZM107.728 106.865C107.875 107.176 108.204 107.359 108.534 107.359C108.663 107.359 108.791 107.323 108.919 107.268C109.359 107.048 109.543 106.516 109.341 106.076C108.571 104.5 107.783 102.923 106.976 101.329C106.756 100.889 106.206 100.724 105.767 100.944C105.327 101.164 105.162 101.714 105.382 102.154C106.188 103.73 106.976 105.288 107.728 106.846V106.865ZM89.8555 215.822C88.1874 215.822 86.4644 215.693 84.7046 215.473C84.228 215.418 83.7698 215.767 83.7148 216.243C83.6598 216.738 84.0081 217.178 84.4847 217.233C86.3177 217.453 88.1141 217.581 89.8555 217.581C90.3505 217.581 90.7538 217.178 90.7538 216.701C90.7538 216.207 90.3688 215.803 89.8739 215.803L89.8555 215.822ZM60.1416 207.151C58.6385 206.363 57.0988 205.52 55.559 204.622C55.1374 204.383 54.5875 204.53 54.3492 204.952C54.1109 205.373 54.2575 205.923 54.6791 206.161C56.2555 207.078 57.8136 207.921 59.3351 208.728C59.4634 208.801 59.61 208.819 59.7384 208.819C60.05 208.819 60.3616 208.636 60.5266 208.343C60.7465 207.903 60.5816 207.371 60.1416 207.133V207.151ZM109.029 209.736C107.673 210.781 106.243 211.697 104.722 212.485C104.282 212.705 104.117 213.255 104.337 213.695C104.502 214.007 104.813 214.172 105.125 214.172C105.272 214.172 105.4 214.135 105.528 214.08C107.123 213.255 108.681 212.265 110.111 211.166C110.496 210.872 110.569 210.304 110.276 209.919C109.964 209.534 109.414 209.461 109.029 209.754V209.736ZM113.209 116.928C113.667 116.745 113.887 116.213 113.685 115.755C113.007 114.142 112.311 112.51 111.577 110.897C111.376 110.457 110.844 110.256 110.404 110.457C109.946 110.659 109.763 111.191 109.964 111.63C110.697 113.244 111.394 114.838 112.054 116.451C112.201 116.8 112.53 117.001 112.879 117.001C112.989 117.001 113.117 116.983 113.227 116.928H113.209ZM104.465 96.6727C103.622 95.1329 102.742 93.5931 101.844 92.0534C101.605 91.6318 101.056 91.4851 100.634 91.7418C100.212 91.9984 100.066 92.53 100.322 92.9516C101.221 94.473 102.082 95.9945 102.907 97.5342C103.072 97.8275 103.365 97.9925 103.695 97.9925C103.842 97.9925 103.988 97.9558 104.117 97.8825C104.557 97.6442 104.703 97.0943 104.465 96.6727ZM121.604 192.395C121.128 192.23 120.633 192.468 120.468 192.945C119.881 194.613 119.221 196.208 118.488 197.729C118.268 198.169 118.451 198.701 118.91 198.921C119.038 198.976 119.166 199.012 119.294 199.012C119.624 199.012 119.936 198.829 120.101 198.518C120.871 196.941 121.549 195.273 122.154 193.55C122.319 193.092 122.081 192.578 121.604 192.413V192.395ZM124.867 171.608C124.335 171.59 123.969 171.975 123.95 172.47C123.895 174.248 123.804 175.989 123.639 177.676C123.602 178.171 123.951 178.592 124.445 178.647C124.464 178.647 124.5 178.647 124.519 178.647C124.977 178.647 125.362 178.299 125.399 177.841C125.564 176.118 125.655 174.321 125.71 172.525C125.71 172.03 125.344 171.627 124.849 171.608H124.867ZM100.011 214.392C98.4159 214.887 96.7295 215.253 95.0064 215.492C94.5115 215.565 94.1816 216.005 94.2366 216.5C94.2916 216.94 94.6765 217.27 95.1165 217.27C95.1531 217.27 95.1897 217.27 95.2447 217.27C97.0595 217.013 98.8559 216.628 100.542 216.115C101.019 215.968 101.276 215.473 101.129 214.997C100.982 214.52 100.487 214.264 100.011 214.41V214.392ZM124.024 182.112C123.547 182.038 123.071 182.368 122.997 182.845C122.722 184.586 122.356 186.309 121.952 187.941C121.824 188.417 122.117 188.894 122.594 189.022C122.667 189.022 122.741 189.041 122.814 189.041C123.217 189.041 123.584 188.766 123.676 188.362C124.097 186.676 124.445 184.916 124.739 183.12C124.812 182.625 124.482 182.167 124.005 182.093L124.024 182.112ZM117.186 201.927C116.783 201.652 116.215 201.762 115.958 202.184C115.005 203.632 113.942 205.007 112.824 206.235C112.494 206.601 112.512 207.17 112.879 207.5C113.044 207.646 113.264 207.738 113.484 207.738C113.722 207.738 113.96 207.646 114.144 207.445C115.335 206.143 116.453 204.695 117.461 203.174C117.736 202.77 117.626 202.202 117.205 201.945L117.186 201.927ZM73.5413 53.7607C72.3498 52.4593 71.14 51.1761 69.9119 49.893C69.5636 49.5447 69.0137 49.5264 68.6471 49.8747C68.2988 50.2229 68.2804 50.7729 68.6287 51.1395C69.8569 52.4043 71.0483 53.6874 72.2215 54.9706C72.4048 55.1539 72.6431 55.2639 72.8814 55.2639C73.1014 55.2639 73.3213 55.1905 73.4863 55.0256C73.8529 54.6956 73.8712 54.1274 73.5413 53.7607ZM69.6736 211.459C68.0971 210.836 66.484 210.157 64.871 209.424C64.431 209.223 63.8994 209.424 63.6794 209.864C63.4778 210.304 63.6795 210.836 64.1194 211.037C65.7691 211.789 67.4189 212.485 69.032 213.127C69.142 213.164 69.2519 213.182 69.3619 213.182C69.7102 213.182 70.0585 212.962 70.1868 212.614C70.3701 212.156 70.1318 211.642 69.6736 211.459ZM65.5675 47.6383C65.7874 47.6383 66.0257 47.5467 66.1907 47.3817C66.539 47.0334 66.539 46.4652 66.1907 46.1169C64.9442 44.8704 63.6795 43.6423 62.3963 42.4141C62.048 42.0658 61.4798 42.0842 61.1315 42.4508C60.7832 42.799 60.8015 43.3673 61.1681 43.7156C62.4513 44.9254 63.6978 46.1535 64.9442 47.3817C65.1092 47.5467 65.3475 47.6383 65.5675 47.6383ZM90.2955 74.2727C90.0022 73.8694 89.4522 73.7778 89.049 74.0711C88.6457 74.3643 88.5541 74.9143 88.8474 75.3175C89.8739 76.7473 90.9004 78.1771 91.8719 79.6069C92.0369 79.8635 92.3302 79.9918 92.6051 79.9918C92.7884 79.9918 92.9534 79.9369 93.1184 79.8269C93.5216 79.5519 93.6317 78.9837 93.3384 78.5804C92.3485 77.1323 91.322 75.6842 90.2772 74.2544L90.2955 74.2727ZM86.4277 71.4498C86.611 71.4498 86.8127 71.3948 86.9593 71.2665C87.3443 70.9732 87.4359 70.4049 87.1243 70.02C86.0611 68.6269 84.9796 67.2337 83.8614 65.8406C83.5498 65.4557 82.9999 65.4007 82.615 65.694C82.23 66.0056 82.175 66.5555 82.4683 66.9404C83.5681 68.3152 84.6497 69.7084 85.6945 71.0832C85.8778 71.3215 86.1345 71.4314 86.4094 71.4314L86.4277 71.4498ZM79.6271 214.557C77.9957 214.19 76.3092 213.732 74.6045 213.2C74.1279 213.054 73.6329 213.31 73.4863 213.787C73.3397 214.264 73.5963 214.758 74.0729 214.905C75.8143 215.455 77.5557 215.913 79.2421 216.298C79.3155 216.298 79.3704 216.317 79.4438 216.317C79.847 216.317 80.2136 216.042 80.3053 215.62C80.4153 215.143 80.1037 214.667 79.6271 214.557ZM77.0791 57.7018C76.7491 57.3352 76.1809 57.2986 75.8143 57.6285C75.4477 57.9585 75.411 58.5084 75.741 58.8933C76.8958 60.2131 78.0506 61.5513 79.1688 62.8894C79.3521 63.1094 79.5904 63.201 79.847 63.201C80.0487 63.201 80.2503 63.1277 80.4153 62.9994C80.8002 62.6877 80.8369 62.1195 80.5253 61.7346C79.4071 60.3781 78.2523 59.04 77.0791 57.7018Z" fill="#09857E"/>
</svg>
